<svg width="0" height="0" class="hidden">
  <symbol xmlns="http://www.w3.org/2000/svg" viewBox="0 0 16 16" id="icon-info">
    <path d="M0 0h16v16H0V0zm9.594 13.594V7.188H6.406v6.406h3.188zm0-8.781V2.405H6.406v2.406h3.188z"></path>
  </symbol>
  <symbol xmlns="http://www.w3.org/2000/svg" viewBox="0 0 12 9" id="icon-chevron-down">
    <path d="M6 8.133l-6-6L1.266.867 6 4.97 10.734.867 12 2.133l-6 6z"></path>
  </symbol>
  <symbol xmlns="http://www.w3.org/2000/svg" viewBox="0 0 8 13" id="icon-chevron-right">
    <path d="M7.633 6.5l-6 6-1.266-1.266L4.47 6.5.367 1.766 1.633.5l6 6z"></path>
  </symbol>
  <symbol xmlns="http://www.w3.org/2000/svg" viewBox="0 0 8 13" id="icon-chevron-left">
    <path d="M.367 6.5l6-6 1.266 1.266L3.53 6.5l4.102 4.734L6.367 12.5l-6-6z"></path>
  </symbol>
  <symbol xmlns="http://www.w3.org/2000/svg" viewBox="0 0 34 33" id="icon-plus">
    <path d="M15.075 18.729v14.272h3.84V18.729h14.272v-3.84H18.915V.553h-3.84v14.336H.803v3.84h14.271z"></path>
  </symbol>
  <symbol xmlns="http://www.w3.org/2000/svg" viewBox="0 0 16 16" id="icon-save">
    <path d="M3 1.046C3 .468 3.448 0 4 0h8c.552 0 1 .468 1 1.046v14.43c0 .466-.539.7-.854.37L8 12l-4.146 3.846c-.315.33-.854.096-.854-.37V1.046z"></path>
  </symbol>
  <symbol xmlns="http://www.w3.org/2000/svg" viewBox="0 0 96 72" id="icon-play">
    <path fill-rule="evenodd" clip-rule="evenodd" d="M96 0H0v72h96V0zM31 58l36-22-36-22v44z" fill-opacity=".8"></path>
  </symbol>
  <symbol xmlns="http://www.w3.org/2000/svg" viewBox="0 0 16 16" xml:space="preserve" id="icon-kitchen">
    <path d="M0 7h9v9H1a1 1 0 01-1-1V7zm0-6a1 1 0 011-1h8v6H0V1zm10-1h5a1 1 0 011 1v14a1 1 0 01-1 1h-5V0z"></path>
  </symbol>
  <symbol xmlns="http://www.w3.org/2000/svg" viewBox="0 0 25 24" id="icon-check">
    <path d="M19.93 4.96L22 7.032 8.992 20.04 2 13.047l2.07-2.07 4.492 3.867L19.93 4.96z"></path>
  </symbol>
  <symbol xmlns="http://www.w3.org/2000/svg" viewBox="0 0 14 19" id="icon-download">
    <path d="M13.188 7.563L7 13.75.812 7.562l1.301-1.3L5.56 8.863 5.875.25h2.25l.316 8.613 3.446-2.601 1.3 1.3zm-1.547 7.312h1.793l-.246 3.375H.812l-.246-3.375h1.688l.14 1.688H11.5l.14-1.688zm1.546-7.313L7 13.75.812 7.562l1.301-1.3L5.56 8.863 5.875.25h2.25l.316 8.613 3.446-2.601 1.3 1.3z"></path>
  </symbol>
  <symbol xmlns="http://www.w3.org/2000/svg" viewBox="0 0 24 24" id="icon-hobs">
    <path d="M2.362.724A.5.5 0 012.809 0h18.382a.5.5 0 01.447.724l-1.5 3a.5.5 0 01-.447.276H4.309a.5.5 0 01-.447-.276l-1.5-3zM7.948 14c-.418 1.057-.512 1.996-.41 2.811a4.998 4.998 0 001.07 2.5.5.5 0 00.784-.622 3.998 3.998 0 01-.862-2c-.089-.717.005-1.61.505-2.689h1.912c-.417 1.057-.51 1.996-.41 2.811a4.997 4.997 0 001.071 2.5.5.5 0 00.784-.622 3.998 3.998 0 01-.862-2c-.089-.717.005-1.61.505-2.689h1.912c-.417 1.057-.51 1.996-.41 2.811a4.997 4.997 0 001.071 2.5.5.5 0 00.784-.622 3.998 3.998 0 01-.862-2c-.089-.717.005-1.61.505-2.689h4.627a.5.5 0 01.464.314l3.6 9a.5.5 0 01-.464.686H.739a.5.5 0 01-.465-.686l3.6-9A.5.5 0 014.34 14h3.609z"></path>
    <path d="M8.69 6.608a.5.5 0 01.702.081 4.999 4.999 0 011.07 2.5c.14 1.125-.092 2.485-1.032 4.067a8.22 8.22 0 00-.395.744H7.948c.158-.402.363-.82.622-1.256.844-1.418 1.009-2.558.9-3.433a3.998 3.998 0 00-.862-2 .5.5 0 01.081-.703zM15.035 14c.111-.239.242-.487.395-.744.94-1.582 1.172-2.942 1.033-4.068a4.998 4.998 0 00-1.071-2.499.5.5 0 00-.784.622 3.99 3.99 0 01.862 2c.109.875-.056 2.015-.9 3.433A8.74 8.74 0 0013.947 14h1.088zm-3 0c.111-.239.242-.487.395-.744.94-1.582 1.172-2.942 1.033-4.068a4.998 4.998 0 00-1.071-2.499.5.5 0 00-.784.622 3.99 3.99 0 01.862 2c.109.875-.056 2.015-.9 3.433A8.74 8.74 0 0010.947 14h1.088z"></path>
  </symbol>
  <symbol xmlns="http://www.w3.org/2000/svg" viewBox="0 0 24 24" id="icon-ovens">
    <path fill-rule="evenodd" clip-rule="evenodd" d="M0 .5A.5.5 0 01.5 0h23a.5.5 0 01.5.5v23a.5.5 0 01-.5.5H.5a.5.5 0 01-.5-.5V.5zm2 8a.5.5 0 01.5-.5h19a.5.5 0 01.5.5v11a.5.5 0 01-.5.5h-19a.5.5 0 01-.5-.5v-11zM12 6a2 2 0 100-4 2 2 0 000 4z"></path>
    <path fill-rule="evenodd" clip-rule="evenodd" d="M4 18.5a.5.5 0 01.5-.5h15a.5.5 0 010 1h-15a.5.5 0 01-.5-.5zm4.454-3.124C7.52 16.195 7 17.194 7 18H6c0-1.194.73-2.444 1.796-3.376C8.873 13.68 10.36 13 12 13c1.638 0 3.127.681 4.204 1.624C17.27 15.555 18 16.806 18 18h-1c0-.806-.52-1.805-1.454-2.624C14.623 14.57 13.362 14 12 14c-1.362 0-2.623.569-3.546 1.376z"></path>
  </symbol>
  <symbol xmlns="http://www.w3.org/2000/svg" viewBox="0 0 14 24" id="icon-cooling">
    <path d="M0 16h14v7.5a.5.5 0 01-.5.5H.5a.5.5 0 01-.5-.5V16z"></path>
    <path fill-rule="evenodd" clip-rule="evenodd" d="M.5 0a.5.5 0 00-.5.5V15h14V.5a.5.5 0 00-.5-.5H.5zm8.018 4.026a.5.5 0 00-.966-.259l-.81 3.027-2.217-2.216a.5.5 0 10-.707.707l2.216 2.216-3.027.812a.5.5 0 00.259.966l3.027-.812-.811 3.028a.5.5 0 00.966.258l.81-3.027 2.217 2.216a.5.5 0 00.707-.707L7.966 8.02l3.027-.811a.5.5 0 00-.259-.966l-3.027.811.811-3.027z"></path>
  </symbol>
  <symbol xmlns="http://www.w3.org/2000/svg" viewBox="0 0 18 24" id="icon-dishwasher">
    <path d="M9 15a3 3 0 003-3V9H6v3a3 3 0 003 3z"></path>
    <path fill-rule="evenodd" clip-rule="evenodd" d="M0 .5A.5.5 0 01.5 0h17a.5.5 0 01.5.5v23a.5.5 0 01-.5.5H.5a.5.5 0 01-.5-.5V.5zm3 2a.5.5 0 01.5-.5h11a.5.5 0 010 1h-11a.5.5 0 01-.5-.5zM13 8H5v4a4 4 0 003.5 3.97V20h-2a.5.5 0 000 1h5a.5.5 0 000-1h-2v-4.03A4 4 0 0013 12V8z"></path>
  </symbol>
</svg>