<?xml version="1.0" encoding="UTF-8"?>
<svg width="160px" height="93px" viewBox="0 0 160 93" version="1.1" xmlns="http://www.w3.org/2000/svg" xmlns:xlink="http://www.w3.org/1999/xlink">
    <!-- Generator: Sketch 50.2 (55047) - http://www.bohemiancoding.com/sketch -->
    <title>Tehnopol-Logo</title>
    <desc>Created with Sketch.</desc>
    <defs></defs>
    <g id="Pages" stroke="none" stroke-width="1" fill="none" fill-rule="evenodd">
        <g id="News-List" transform="translate(-40.000000, -3520.000000)">
            <g id="Footer" transform="translate(0.000000, 2980.000000)">
                <g id="Tehnopol-Logo" transform="translate(40.000000, 540.000000)">
                    <g id="Symbol" transform="translate(54.400000, 0.000000)">
                        <path d="M79.9814933,4.64150172 C81.4012267,2.27213966 83.4604267,0.553777586 86.6428267,1.88945 C93.5308267,4.77993276 90.84656,10.3155707 86.42256,14.6999328 C72.07216,28.9209155 61.6422933,38.5164845 85.7644267,63.2844155 C91.0182933,68.6794845 107.657227,77.0703293 105.045493,87.4531914 C103.783093,92.4751914 95.5430933,94.1924845 89.48496,91.573519 C65.84656,81.3536741 76.45456,54.1249845 52.7020267,44.1451224 C33.1516267,35.9317259 10.8262933,50.9068638 2.59856,46.7336224 C0.0396266667,45.4358983 -0.75024,42.1370707 2.22896,39.3604328 C20.2710933,22.5472086 50.2118933,50.1430879 74.5686933,16.8704672 C77.62736,12.6913466 77.7612267,8.34653621 79.9814933,4.64150172" id="Fill-1" fill="#F36F21"></path>
                        <path d="M80.09088,3.31603793 C81.5202133,0.960572414 84.2695467,-0.217962069 87.46528,1.05464138 C93.1442133,3.31657241 90.4727467,9.23329655 86.0503467,13.6026931 C71.7079467,27.7723655 61.28608,37.3331931 85.32768,61.9990379 C90.5639467,67.3711241 107.15488,75.7245552 104.534613,86.0635897 C103.26688,91.0642103 95.04288,92.7750897 89.0018133,90.1684172 C65.42848,79.9956069 76.04928,52.8775552 52.3559467,42.9409862 C32.8535467,34.7617966 10.55488,49.6813483 2.34794667,45.5262793 C-0.20512,44.2333655 -0.990186667,40.9473655 1.98634667,38.1814172 C20.0114133,21.4291241 49.86368,48.915969 74.2151467,15.7662793 C77.2743467,11.6021241 77.41088,7.73246897 80.09088,3.31603793" id="Fill-4" fill="#FDB813"></path>
                        <path d="M104.390347,85.8698397 C103.143947,90.7646328 95.0079467,92.5530121 89.0138133,89.9580983 C65.55888,79.8034603 76.1370133,52.8056672 52.4570133,42.878719 C32.9386133,34.6979259 10.5658133,49.4630121 2.42074667,45.3442879 C-0.0917866667,44.072219 -0.84112,40.8578397 2.09221333,38.1309086 C20.02288,21.4641328 49.7823467,48.8804259 74.2111467,15.7713569 C77.32048,11.5633741 77.41168,7.7359431 80.0751467,3.34783966 C81.4927467,1.01215 84.23568,-0.170125862 87.38768,1.09980517 C93.05648,3.40128793 90.21808,9.39123621 85.7711467,13.7782707 C71.44368,27.9174776 61.5327467,37.6856845 85.3759467,62.0944431 C90.5434133,67.3874259 106.988213,75.6906155 104.390347,85.8698397" id="Fill-7" fill="#FDB614"></path>
                        <path d="M104.000267,85.3437483 C102.810933,89.9536621 94.9149333,91.9510241 89.0456,89.3897828 C65.9149333,79.2837828 76.3762667,52.6088172 52.7298667,42.7101966 C33.172,34.5235241 10.5944,48.8711793 2.6184,44.8508 C0.214666667,43.6375241 -0.436533333,40.6128862 2.38106667,37.9933862 C20.0552,21.5585759 49.5645333,48.7829897 74.2002667,15.7824207 C77.4472,11.4573862 77.4146667,7.74433448 80.0349333,3.43212759 C81.42,1.15255862 84.1437333,-0.0404068966 87.1794667,1.22204138 C92.8184,3.63042069 89.5298667,9.81652414 85.0162667,14.2532655 C70.7277333,28.3090931 62.2008,38.6385069 85.5074667,62.3503 C90.4909333,67.4294897 106.539467,75.5985241 104.000267,85.3437483" id="Fill-9" fill="#FCB017"></path>
                        <path d="M103.609653,84.8181379 C102.477387,89.1437069 94.8208533,91.3500517 89.0768533,88.8214138 C66.26992,78.7640517 76.6149867,52.4124483 53.0021867,42.5416207 C33.4037867,34.3501379 10.62192,48.2808966 2.81445333,44.3577931 C0.520586667,43.2022414 -0.03248,40.3684138 2.66885333,37.8563448 C20.0869867,21.652431 49.3456533,48.686569 74.1893867,15.7945 C77.5733867,11.3518793 77.4176533,7.75267241 79.9941867,3.51689655 C81.34672,1.29291379 84.0517867,0.0892586207 86.97072,1.34422414 C92.5797867,3.86003448 88.8416533,10.2428276 84.2608533,14.7287414 C70.01072,28.7011897 62.86832,39.5923448 85.63792,62.6071724 C90.4373867,67.472569 106.089653,75.5063793 103.609653,84.8181379" id="Fill-11" fill="#FBAA19"></path>
                        <path d="M103.21952,84.2925276 C102.143787,88.3332172 94.7272533,90.7485448 89.1085867,88.2530448 C66.6253867,78.2437862 76.8525867,52.2150103 53.2749867,42.3730448 C33.6365867,34.1762172 10.6504533,47.6890103 3.01205333,43.8647862 C0.826453333,42.7669586 0.372053333,40.1239414 2.95765333,37.718769 C20.1181867,21.7468207 49.12672,48.5896138 74.1784533,15.8060448 C77.6984533,11.2458379 77.4205867,7.76101034 79.9528533,3.60166552 C81.2728533,1.43273448 83.9597867,0.218924138 86.7613867,1.46694138 C92.3416533,4.08911379 88.1533867,10.6685966 83.5053867,15.2042172 C69.29472,29.0938207 63.5357867,40.5456483 85.7688533,62.8645793 C90.3832533,67.5145793 105.640853,75.414769 103.21952,84.2925276" id="Fill-13" fill="#FAA41A"></path>
                        <path d="M102.82944,83.7669172 C101.811307,87.5221931 94.63424,90.1475724 89.1403733,87.6852103 C66.9809067,77.7240552 77.0913067,52.0197103 53.5483733,42.204469 C33.8689067,34.0022966 10.67904,47.0987276 3.20917333,43.3717793 C1.13290667,42.3316759 0.77664,39.879469 3.24597333,37.5817276 C20.1499733,21.8412103 48.9083733,48.4931931 74.1681067,15.8175897 C77.8251733,11.140331 77.4235733,7.76934828 79.9121067,3.6859 C81.1995733,1.57255517 83.86784,0.349124138 86.55264,1.58912414 C92.10464,4.31872759 87.4651733,11.0949 82.7505067,15.6791586 C68.5787733,29.4853828 64.20384,41.4994862 85.89984,63.1209172 C90.3297067,67.5576586 105.192107,75.3226241 102.82944,83.7669172" id="Fill-15" fill="#F99E1B"></path>
                        <path d="M102.439307,83.2407724 C101.477707,86.711169 94.5395733,89.545531 89.1721067,87.1168414 C67.33584,77.2037897 77.3299733,51.8228069 53.82064,42.0353586 C34.1011733,33.8278414 10.7075733,46.5063069 3.40624,42.8782379 C1.43930667,41.8963931 1.18117333,39.635531 3.53424,37.4441517 C20.1817067,21.9350655 48.6899733,48.3962379 74.15664,15.8291345 C77.9513067,11.0342897 77.4265067,7.77822069 79.8713067,3.77013448 C81.12624,1.71237586 83.7763733,0.478255172 86.3433067,1.71077241 C91.8665067,4.5478069 86.7769067,11.5201345 81.99504,16.1541 C67.8627733,29.8780138 64.87184,42.4527897 86.03024,63.3777897 C90.2761067,67.6002034 104.741707,75.2304793 102.439307,83.2407724" id="Fill-17" fill="#F8981D"></path>
                        <path d="M102.049227,82.7156966 C101.14576,85.9012138 94.44656,88.9445586 89.2038933,86.5484724 C67.69136,76.6840586 77.5692267,51.6264379 54.0934933,41.8673172 C34.3340267,33.6549897 10.73616,45.9160241 3.60336,42.3857655 C1.74576,41.4611103 1.58522667,39.3910586 3.82256,37.3071103 C20.2134933,22.0299897 48.4716267,48.2998172 74.1462933,15.8412138 C78.0774933,10.9293172 77.4294933,7.78655862 79.8300267,3.85543793 C81.05296,1.85273103 83.6844267,0.608455172 86.1350933,1.83348966 C91.6284267,4.77742069 86.0886933,11.9464379 81.2396267,16.6295759 C67.1468267,30.2695759 65.5398933,43.4060931 86.16176,63.6346621 C90.2230933,67.6432828 104.293493,75.1383345 102.049227,82.7156966" id="Fill-19" fill="#F7931E"></path>
                        <path d="M101.659093,82.1895517 C100.81216,85.0907241 94.35296,88.3430517 89.2356267,85.9801034 C68.0468267,76.1643276 77.8068267,51.4295345 54.36576,41.6982069 C34.56576,33.4805345 10.7646933,45.3241379 3.80042667,41.8922241 C2.05216,41.0252931 1.98976,39.1460517 4.11082667,37.1695345 C20.2452267,22.1238448 48.2526933,48.2023276 74.13536,15.8527586 C78.2036267,10.8227414 77.4318933,7.79436207 79.7892267,3.93967241 C80.9796267,1.99201724 83.5924267,0.737586207 85.9262933,1.95513793 C91.3908267,5.00596552 85.4004267,12.3727414 80.4846933,17.1050517 C66.42976,30.6611379 66.20736,44.3588621 86.2926933,63.8915345 C90.1694933,67.6852931 103.84416,75.0461897 101.659093,82.1895517" id="Fill-21" fill="#F78C1E"></path>
                        <path d="M101.26848,81.6644759 C100.479147,84.2802345 94.2583467,87.7415448 89.26688,85.412269 C68.4018133,75.6440621 78.0450133,51.2331655 54.6386133,41.5307 C34.79808,33.3071483 10.7922133,44.7338552 3.99701333,41.3997517 C2.35754667,40.5910793 2.39381333,38.9021138 4.39861333,37.0330276 C20.27648,22.218769 48.0343467,48.1064414 74.1239467,15.8648379 C78.32928,10.717769 77.43488,7.80323448 79.7479467,4.02497586 C80.9058133,2.1329069 83.5010133,0.867786207 85.71648,2.07838966 C91.1522133,5.23611379 84.71168,12.7990448 79.7287467,17.5805276 C65.7138133,31.0543034 66.87488,45.3132345 86.4231467,64.1484069 C90.1154133,67.7289069 103.394347,74.9540448 101.26848,81.6644759" id="Fill-23" fill="#F6871F"></path>
                        <path d="M100.87888,81.138331 C100.14608,83.4692103 94.1647467,87.1400379 89.2986133,84.8433655 C68.7567467,75.1237966 78.2842133,51.0367966 54.9119467,41.3615897 C35.03088,33.1332276 10.82128,44.141969 4.19408,40.9062103 C2.66448,40.1552621 2.79888,38.6571069 4.68794667,36.8949172 C20.3087467,22.3126241 47.8159467,48.0089517 74.1130133,15.8763828 C78.4559467,10.6117276 77.4383467,7.81157241 79.70768,4.10921034 C80.83248,2.2721931 83.40848,0.996917241 85.5082133,2.20003793 C90.91408,5.46465862 84.0234133,13.2242793 78.9743467,18.0549345 C64.9983467,31.4458655 67.54288,46.2665379 86.5546133,64.4042103 C90.06288,67.7709172 102.94608,74.8619 100.87888,81.138331" id="Fill-25" fill="#F58120"></path>
                        <path d="M100.488267,80.6127207 C99.8125333,82.6587207 94.0717333,86.5390655 89.3304,84.2760655 C69.1122667,74.6046 78.5224,50.8409621 55.1842667,41.1935483 C35.2632,32.9593069 10.8493333,43.5516862 4.3912,40.4137379 C2.9704,39.7205138 3.20293333,38.413169 4.97573333,36.7584103 C20.34,22.4075483 47.5970667,47.912531 74.1026667,15.8879276 C78.5816,10.5062207 77.4408,7.82044483 79.6664,4.19397931 C80.7597333,2.41254828 83.3170667,1.12765172 85.2994667,2.32222069 C90.6765333,5.6948069 83.3352,13.6505828 78.2189333,18.5309448 C64.2818667,31.8384966 68.2104,47.2198414 86.6856,64.6616172 C90.0088,67.814531 102.496267,74.7697552 100.488267,80.6127207" id="Fill-27" fill="#F47C20"></path>
                        <path d="M100.098187,80.0876448 C99.4800533,81.8487655 93.9776533,85.9375586 89.3621867,83.7071621 C69.4672533,74.084869 78.7605867,50.6440586 55.4576533,41.0249724 C35.49552,32.7859207 10.87792,42.9603345 4.58778667,39.920731 C3.27685333,39.285231 3.60752,38.169231 5.26458667,36.621369 C20.37232,22.5014034 47.37872,47.8161103 74.0917867,15.9000069 C78.7077867,10.4007138 77.4437867,7.82878276 79.62512,4.27874828 C80.6864533,2.55290345 83.22512,1.25678276 85.0901867,2.44440345 C90.4389867,5.92388621 82.6469867,14.0763517 77.4640533,19.0058862 C63.5653867,32.2300586 68.8789867,48.1731448 86.8165867,64.9179552 C89.9552533,67.8565414 102.046987,74.6781448 100.098187,80.0876448" id="Fill-29" fill="#F47521"></path>
                        <path d="M84.8924267,2.56022586 C90.2134933,6.14072586 81.99536,14.4797259 76.7484267,19.4557603 C62.8870933,32.6013638 69.5116267,49.0767948 86.9404267,65.161519 C89.9046933,67.8975362 101.621493,74.5908638 99.7286933,79.589881 C99.1638933,81.0805534 93.8892267,85.3676397 89.3926933,83.1687776 C69.8044267,73.5919155 78.9868267,50.4578983 55.7158933,40.8650017 C35.7158933,32.6211397 10.9046933,42.4000362 4.77509333,39.4528983 C3.56709333,38.87245 3.99056,37.9371052 5.53722667,36.4907948 C20.4022933,22.5905017 47.17136,47.724019 74.08176,15.9110707 C78.8268267,10.3006052 77.44656,7.83610517 79.5868267,4.35876034 C80.6166933,2.68529483 83.13776,1.37955345 84.8924267,2.56022586" id="Fill-31" fill="#F36F21"></path>
                        <path d="M7.97941333,35.7592483 C3.70368,37.8512138 1.77354667,40.277231 4.25994667,41.2013517 C9.44554667,43.1281621 42.76288,30.868731 58.73568,42.8315241 C45.2290133,31.0750414 12.81888,40.2558517 7.05194667,39.5556793 C4.92821333,39.2975241 4.55008,38.0281276 7.97941333,35.7592483" id="Fill-33" fill="#FFFFFF"></path>
                        <path d="M96.40704,82.7407103 C97.6795733,81.7043483 100.47104,78.3905552 97.5265067,75.0516414 C90.61824,67.221469 80.1115733,64.1380379 71.6715733,45.7176241 C77.1611733,61.6232966 86.47744,65.7110207 95.2577067,75.2413828 C97.7553067,77.9528138 97.44064,80.5797966 96.40704,82.7407103" id="Fill-35" fill="#FFFFFF"></path>
                        <path d="M84.18048,2.37807414 C86.3031467,2.28186724 88.6039467,3.1295569 87.45888,6.07348793 C87.1026133,6.9890569 86.96928,7.09595345 85.6882133,9.25259138 C86.5010133,7.35891897 86.79968,6.52512586 86.8690133,5.54488448 C86.9863467,3.8890569 86.13088,2.64585 84.18048,2.37807414" id="Fill-37" fill="#FFFFFF"></path>
                    </g>
                    <path d="M5.0664,74.9902293 L5.0664,59.6805052 L-0.000266666667,59.6805052 L-0.000266666667,56.4554362 L13.6109333,56.4554362 L13.6109333,59.6805052 L8.54426667,59.6805052 L8.54426667,74.9902293 L5.0664,74.9902293 Z M25.8088533,69.1579 L16.0920533,69.1579 C16.1496533,70.1482966 16.50912,70.9307793 17.1709867,71.5074862 C17.8328533,72.0831241 18.60832,72.3770897 19.4973867,72.3899172 C20.3240533,72.3754862 20.9981867,72.2456069 21.5208533,72.0018828 C22.0429867,71.7576241 22.4440533,71.4893138 22.72352,71.1964172 C23.00352,70.9040552 23.19232,70.675831 23.2909867,70.5133483 L25.9645867,72.0767103 C25.4877867,72.8714862 24.73472,73.5978483 23.70592,74.2557966 C22.67712,74.9142793 21.27392,75.2627621 19.4973867,75.3028483 C17.35232,75.2611586 15.6984533,74.6032103 14.5352533,73.328469 C13.3725867,72.0537276 12.7837867,70.412331 12.76992,68.4037448 C12.7837867,66.3962276 13.3725867,64.754831 14.5352533,63.4806241 C15.6984533,62.2058828 17.35232,61.5479345 19.4973867,61.5067793 C21.6813867,61.530831 23.28192,62.2171069 24.29952,63.5650724 C25.31712,64.9135724 25.8200533,66.7773138 25.8088533,69.1579 Z M16.0920533,66.7137103 C16.2664533,65.9889517 16.6456533,65.3785724 17.22912,64.8825724 C17.81312,64.3860379 18.5688533,64.1273483 19.4973867,64.1065034 C20.20512,64.1257448 20.77952,64.2989172 21.21952,64.6260207 C21.6600533,64.9531241 21.9816533,65.3197793 22.1853867,65.7249172 C22.3885867,66.1305897 22.4888533,66.459831 22.4867533,66.7137103 L16.0920533,66.7137103 Z M27.9112,74.9902293 L27.9112,56.4554362 L31.0776,56.4554362 L31.0776,63.1188328 L31.1293333,63.1188328 C31.4813333,62.6532983 31.9730667,62.2706086 32.6050667,61.9712983 C33.2365333,61.6714534 34.0008,61.5164534 34.8989333,61.5062983 C35.6616,61.4940052 36.4082667,61.622281 37.1378667,61.8905914 C37.8674667,62.1589017 38.4728,62.6399362 38.9544,63.3331603 C39.4354667,64.026919 39.6850667,65.0050224 39.7032,66.2685397 L39.7032,74.9902293 L36.5368,74.9902293 L36.5368,67.1798328 C36.54,66.2738845 36.3512,65.6116603 35.9714667,65.1942293 C35.5912,64.7762638 34.9997333,64.5699534 34.1970667,64.5752983 C33.4056,64.5907983 32.7816,64.7858845 32.3250667,65.1621603 C31.8690667,65.5379017 31.5453333,66.0034362 31.3549333,66.5587638 C31.164,67.1140914 31.0717333,67.66835 31.0776,68.2215397 L31.0776,74.9902293 L27.9112,74.9902293 Z M42.6359467,74.9902293 L42.6359467,61.8184362 L45.8023467,61.8184362 L45.8023467,63.1188328 L45.85408,63.1188328 C46.3335467,62.5512121 46.88928,62.1391259 47.52128,61.8836431 C48.15328,61.6276259 48.7938133,61.5020224 49.4418133,61.5062983 C50.9938133,61.5121776 52.1362133,61.8970052 52.87008,62.660781 C53.6034133,63.4245569 53.9666133,64.5314707 53.9602133,65.9820569 L53.9602964,74.9902293 L50.7938133,74.9902293 L50.7938133,66.9457293 C50.8050133,66.3225224 50.64608,65.7778845 50.3159467,65.311281 C49.9863467,64.8446776 49.41728,64.59935 48.6098133,64.5752983 C47.82208,64.56835 47.1623467,64.8430741 46.6311467,65.3989362 C46.0994133,65.9553328 45.82368,66.8356259 45.8023467,68.039281 L45.8023467,74.9902293 L42.6359467,74.9902293 Z M62.8413867,61.5065121 C64.98592,61.5476672 66.64032,62.20615 67.8029867,63.4803569 C68.9661867,64.7545638 69.5544533,66.3959603 69.5688533,68.4040121 C69.5544533,70.4120638 68.9661867,72.0534603 67.8029867,73.3282017 C66.64032,74.6029431 64.98592,75.2603569 62.8413867,75.302581 C60.69632,75.2603569 59.0429867,74.6029431 57.8797867,73.3282017 C56.7165867,72.0534603 56.1277867,70.4120638 56.11392,68.4040121 C56.1277867,66.3959603 56.7165867,64.7545638 57.8797867,63.4803569 C59.0429867,62.20615 60.69632,61.5476672 62.8413867,61.5065121 Z M62.8413867,64.4189086 C63.9725867,64.4568569 64.82272,64.8630638 65.3917867,65.6396672 C65.9608533,66.4168052 66.2456533,67.337719 66.2461867,68.4040121 C66.2456533,69.4703052 65.9608533,70.3922879 65.3917867,71.1683569 C64.82272,71.9449603 63.9725867,72.3522362 62.8413867,72.3891155 C61.7101867,72.3522362 60.8600533,71.9449603 60.2909867,71.1683569 C59.7213867,70.3922879 59.43712,69.4703052 59.4360533,68.4040121 C59.43712,67.337719 59.7213867,66.4168052 60.2909867,65.6396672 C60.8600533,64.8630638 61.7101867,64.4568569 62.8413867,64.4189086 Z M71.67056,79.207619 L71.67056,61.8187569 L74.83696,61.8187569 L74.83696,62.9384983 L74.8892267,62.9384983 C75.36816,62.4916707 75.9174933,62.1415845 76.53616,61.8903776 C77.15536,61.6381017 77.8540267,61.5108948 78.63216,61.506619 C79.74896,61.5205155 80.7308267,61.8353259 81.5782933,62.4494466 C82.4252267,63.0630328 83.0876267,63.8893431 83.56496,64.9251707 C84.0428267,65.9626017 84.2854933,67.1218948 84.2940267,68.404119 C84.2860267,69.6868776 84.0422933,70.8456362 83.56336,71.8825328 C83.0838933,72.9194293 82.4172267,73.7446707 81.5628267,74.3593259 C80.7078933,74.9729121 79.71376,75.2871879 78.5798933,75.3021534 C77.6460267,75.2952052 76.8886933,75.1471534 76.30896,74.8601362 C75.7286933,74.5725845 75.23856,74.1914983 74.83696,73.7163431 L74.83696,79.207619 L71.67056,79.207619 Z M77.8524267,72.3892224 C77.0614933,72.3758603 76.4396267,72.1716879 75.9862933,71.7793776 C75.5334933,71.3854638 75.2118933,70.8873259 75.0220267,70.2828259 C74.8316267,69.6777914 74.7356267,69.0519121 74.73296,68.404119 C74.7356267,67.7563259 74.8316267,67.1299121 75.0220267,66.5254121 C75.2118933,65.921981 75.5334933,65.4227741 75.9862933,65.0299293 C76.4396267,64.6360155 77.0614933,64.4329121 77.8524267,64.4190155 C78.64336,64.4329121 79.2652267,64.6360155 79.7180267,65.0299293 C80.1708267,65.4227741 80.4924267,65.921981 80.6828267,66.5254121 C80.8726933,67.1299121 80.96976,67.7563259 80.97136,68.404119 C80.96976,69.0519121 80.8726933,69.6777914 80.6828267,70.2828259 C80.4924267,70.8873259 80.1708267,71.3854638 79.7180267,71.7793776 C79.2652267,72.1716879 78.64336,72.3758603 77.8524267,72.3892224 Z M92.2914133,61.5065121 C94.4359467,61.5476672 96.0903467,62.20615 97.2530133,63.4803569 C98.4162133,64.7545638 99.0050133,66.3959603 99.01888,68.4040121 C99.0050133,70.4120638 98.4162133,72.0534603 97.2530133,73.3282017 C96.0903467,74.6029431 94.4359467,75.2603569 92.2914133,75.302581 C90.14688,75.2603569 88.4930133,74.6029431 87.3298133,73.3282017 C86.1666133,72.0534603 85.5778133,70.4120638 85.5639467,68.4040121 C85.5778133,66.3959603 86.1666133,64.7545638 87.3298133,63.4803569 C88.4930133,62.20615 90.14688,61.5476672 92.2914133,61.5065121 Z M92.2914133,64.4189086 C93.4226133,64.4568569 94.2727467,64.8630638 94.8418133,65.6396672 C95.41088,66.4168052 95.6962133,67.337719 95.6962133,68.4040121 C95.6962133,69.4703052 95.41088,70.3922879 94.8418133,71.1683569 C94.2727467,71.9449603 93.4226133,72.3522362 92.2914133,72.3891155 C91.1602133,72.3522362 90.31008,71.9449603 89.7410133,71.1683569 C89.1719467,70.3922879 88.8866133,69.4703052 88.88608,68.4040121 C88.8866133,67.337719 89.1719467,66.4168052 89.7410133,65.6396672 C90.31008,64.8630638 91.1602133,64.4568569 92.2914133,64.4189086 Z M101.12,74.990069 L101.12,56.4552759 L104.2864,56.4552759 L104.2864,74.990069 L101.12,74.990069 Z" id="Tehnopol" fill="#999999"></path>
                </g>
            </g>
        </g>
    </g>
</svg>